<?xml version="1.0" encoding="UTF-8" standalone="no"?>
<!DOCTYPE svg PUBLIC "-//W3C//DTD SVG 1.1//EN" "http://www.w3.org/Graphics/SVG/1.1/DTD/svg11.dtd">
<svg width="100%" height="100%" viewBox="0 0 155 32" version="1.1" xmlns="http://www.w3.org/2000/svg" xmlns:xlink="http://www.w3.org/1999/xlink" xml:space="preserve" xmlns:serif="http://www.serif.com/" style="fill-rule:evenodd;clip-rule:evenodd;stroke-linecap:round;stroke-linejoin:round;">
    <g transform="matrix(1.0681,0.225386,-0.270268,1.2808,7.70482,-2.08708)">
        <path d="M3.375,19.5L20.625,19.5M3.375,19.5C2.758,19.5 2.25,18.992 2.25,18.375M3.375,19.5L4.875,19.5C5.496,19.5 6,18.996 6,18.375M2.25,18.375L2.25,5.625M2.25,18.375L2.25,16.875C2.25,16.254 2.754,15.75 3.375,15.75M21.75,18.375L21.75,5.625M21.75,18.375C21.75,18.996 21.246,19.5 20.625,19.5M21.75,18.375L21.75,16.875C21.75,16.254 21.246,15.75 20.625,15.75M20.625,19.5L19.125,19.5C18.508,19.5 18,18.992 18,18.375M20.625,4.5L3.375,4.5M20.625,4.5C21.246,4.5 21.75,5.004 21.75,5.625M20.625,4.5L19.125,4.5C18.504,4.5 18,5.004 18,5.625M21.75,5.625L21.75,7.125C21.75,7.746 21.246,8.25 20.625,8.25M3.375,4.5C2.754,4.5 2.25,5.004 2.25,5.625M3.375,4.5L4.875,4.5C5.496,4.5 6,5.004 6,5.625M2.25,5.625L2.25,7.125C2.25,7.746 2.754,8.25 3.375,8.25M3.375,8.25L4.875,8.25M3.375,8.25C2.754,8.25 2.25,8.754 2.25,9.375L2.25,10.875C2.25,11.496 2.754,12 3.375,12M4.875,8.25C5.496,8.25 6,7.746 6,7.125L6,5.625M4.875,8.25C5.496,8.25 6,8.754 6,9.375L6,10.875M6,5.625L6,10.875M6,5.625C6,5.004 6.504,4.5 7.125,4.5L16.875,4.5C17.496,4.5 18,5.004 18,5.625M19.125,8.25L20.625,8.25M19.125,8.25C18.508,8.25 18,7.742 18,7.125L18,5.625M19.125,8.25C18.504,8.25 18,8.754 18,9.375L18,10.875M20.625,8.25C21.246,8.25 21.75,8.754 21.75,9.375L21.75,10.875C21.75,11.496 21.246,12 20.625,12M18,5.625L18,10.875M7.125,12L16.875,12M7.125,12C6.508,12 6,11.492 6,10.875M7.125,12C6.504,12 6,12.504 6,13.125M6,10.875C6,11.496 5.496,12 4.875,12M18,10.875C18,11.496 17.496,12 16.875,12M18,10.875C18,11.496 18.504,12 19.125,12M16.875,12C17.496,12 18,12.504 18,13.125M6,18.375L6,13.125M6,18.375C6,18.996 6.504,19.5 7.125,19.5L16.875,19.5C17.496,19.5 18,18.996 18,18.375M6,18.375L6,16.875C6,16.254 5.496,15.75 4.875,15.75M18,18.375L18,13.125M18,18.375L18,16.875C18,16.254 18.504,15.75 19.125,15.75M18,13.125L18,14.625C18,15.246 18.504,15.75 19.125,15.75M18,13.125C18,12.504 18.504,12 19.125,12M6,13.125L6,14.625C6,15.246 5.496,15.75 4.875,15.75M6,13.125C6,12.504 5.496,12 4.875,12M3.375,12L4.875,12M3.375,12C2.754,12 2.25,12.504 2.25,13.125L2.25,14.625C2.25,15.246 2.754,15.75 3.375,15.75M19.125,12L20.625,12M20.625,12C21.246,12 21.75,12.504 21.75,13.125L21.75,14.625C21.75,15.246 21.246,15.75 20.625,15.75M3.375,15.75L4.875,15.75M19.125,15.75L20.625,15.75" style="fill:none;fill-rule:nonzero;stroke:white;stroke-width:1.5px;"/>
    </g>
    <g transform="matrix(1,0,0,1,0.762519,-3.24094)">
        <g id="Layer2">
            <g>
                <text x="39.845px" y="26.438px" style="font-family:'Gotham-Bold', 'Gotham';font-weight:700;font-size:20px;fill:white;">frame</text>
                <g transform="matrix(20,0,0,20,148.065,26.4383)">
                </g>
                <text x="98.945px" y="26.438px" style="font-family:'Gotham-Book', 'Gotham';font-size:20px;fill:rgb(131,131,131);">w<tspan x="115.665px 128.585px " y="26.438px 26.438px ">or</tspan>k</text>
            </g>
        </g>
    </g>
</svg>
